<svg data-name="그룹 664" xmlns="http://www.w3.org/2000/svg" width="18.8" height="20.729" viewBox="0 0 18.8 20.729">
    <defs>
        <clipPath id="89we262m2a">
            <path data-name="사각형 1788" style="fill:#aaa" d="M0 0h18.8v20.729H0z"/>
        </clipPath>
    </defs>
    <g data-name="그룹 663" style="clip-path:url(#89we262m2a)">
        <path data-name="패스 941" d="M15.1 8.195a4.1 4.1 0 1 1 4.1-4.1 4.1 4.1 0 0 1-4.1 4.1m0-6.749A2.651 2.651 0 1 0 17.749 4.1 2.654 2.654 0 0 0 15.1 1.446" transform="translate(-.395)" style="fill:#aaa"/>
        <path data-name="패스 942" d="M4.1 8.195A4.1 4.1 0 1 1 8.2 4.1a4.1 4.1 0 0 1-4.1 4.1m0-6.749A2.651 2.651 0 1 0 6.749 4.1 2.654 2.654 0 0 0 4.1 1.446" style="fill:#aaa"/>
        <path data-name="패스 943" d="M15.366 20.967a.724.724 0 0 1-.58-.29L5.165 7.806a.723.723 0 0 1 1.158-.867l9.622 12.872a.723.723 0 0 1-.578 1.156" transform="translate(-.18 -.239)" style="fill:#aaa"/>
        <path data-name="패스 944" d="M3.752 20.967a.723.723 0 0 1-.578-1.156l9.632-12.872a.723.723 0 0 1 1.158.867L4.333 20.677a.724.724 0 0 1-.58.29" transform="translate(-.109 -.239)" style="fill:#aaa"/>
    </g>
</svg>
